<svg xmlns="http://www.w3.org/2000/svg" width="56" height="70" viewBox="0 0 14.817 18.521"><path style="fill:#00000c;fill-opacity:1;fill-rule:nonzero;stroke:none;stroke-width:1.33333325" d="M11.922 0C7.012 0 2.532 2.741.232 7.154l.008.002c-.159.331-.24.668-.24.998a2.337 2.337 0 0 0 2.334 2.334 2.335 2.335 0 0 0 2.332-2.334c0-.961-.583-1.786-1.414-2.144C4.817 4.8 6.685 4.146 8.65 4.146c5.008 0 9.084 4.076 9.084 9.086 0 5.012-4.076 9.092-9.084 9.092-2.89 0-5.55-1.352-7.29-3.71l-1.128.702a13.26 13.26 0 0 0 7.94 6.58v2.592H1.588v2.832h6.584v6.5h7.494v-6.5h6.588v-2.832h-6.588l.002-2.603c5.615-1.654 9.488-6.784 9.488-12.65C25.156 5.936 19.22 0 11.922 0Z" transform="translate(4.08 4.257) scale(.26458)"/></svg>