<svg xmlns="http://www.w3.org/2000/svg" width="56" height="70" viewBox="0 0 14.817 18.521"><path style="fill:#00000f;fill-opacity:1;fill-rule:nonzero;stroke:none;stroke-width:.40000001;stroke-miterlimit:4;stroke-dasharray:none" d="M183.176 175.673v-2.73c1.276.296 2.191 1.387 2.264 2.73zm-1.983.75v2.026a2.924 2.924 0 0 1-1.554-2.027zm0-.75h-1.635a2.925 2.925 0 0 1 1.635-2.504zm1.983.75h2.195a2.946 2.946 0 0 1-2.195 2.252zm5.2-.75h-2.174a4.35 4.35 0 0 0-3.026-3.447v-1.055c0-2.358.761-3.79 1.095-3.79v-.353c-1.42 0-2.904 1.571-3.06 5.076a4.308 4.308 0 0 0-3.548 3.569h-1.67v.75h1.611a4.342 4.342 0 0 0 3.589 4.215v.286c0 2.19-.72 3.79-1.096 3.79v.353c1.22 0 2.732-1.19 3.026-4.533a4.321 4.321 0 0 0 3.138-4.112h2.115z" transform="translate(-174.776 -166.787)"/></svg>