<svg xmlns="http://www.w3.org/2000/svg" width="56" height="70" viewBox="0 0 14.817 18.521"><path style="fill:#000;fill-opacity:1;fill-rule:nonzero;stroke:none;stroke-width:.35277775" d="M-13.336 191.756a2.961 2.961 0 0 1-1.384.354 3.006 3.006 0 0 1-3.003-3.004 2.98 2.98 0 0 1 1.924-2.794l-.086-.345-.079-.007a3.65 3.65 0 0 0-1.875.52c.201-1.697.767-2.617 1.027-2.617v-.353c-1.324 0-2.748 1.404-3.026 4.53a3.643 3.643 0 0 0-1.996-.599 3.693 3.693 0 0 0-2.845 1.355l.218.268a2.969 2.969 0 0 1 1.383-.353 3.006 3.006 0 0 1 3.003 3.003 2.982 2.982 0 0 1-1.923 2.795l.087.344.077.007c.66 0 1.302-.179 1.875-.52-.2 1.698-.766 2.618-1.027 2.618v.353c1.324 0 2.748-1.404 3.026-4.53a3.64 3.64 0 0 0 1.996.599 3.693 3.693 0 0 0 2.845-1.355z" transform="translate(26.307 -181.15)"/></svg>