<svg width="56" height="70" viewBox="0 0 14.817 18.521" xmlns="http://www.w3.org/2000/svg"><path style="fill:#00002a;fill-opacity:1;fill-rule:nonzero;stroke:none;stroke-width:.35277775" transform="translate(-28.121 -186.442)" d="M39.058 196.796v-1.884h-7.056v1.884c0 2.19-.72 3.79-1.095 3.79v.353c1.466 0 2.96-1.638 3.067-5.286l3.112.006c.108 3.644 1.601 5.28 3.067 5.28v-.353c-.375 0-1.095-1.6-1.095-3.79m-3.277-5.51c.396 0 .717.45.717 1.002s-.321 1.001-.717 1.001c-.397 0-.718-.45-.718-1.001 0-.552.321-1.001.718-1.001m-.251 2.823a1.825 1.825 0 0 0 1.823-1.822 1.825 1.825 0 0 0-1.823-1.822 1.825 1.825 0 0 0-1.823 1.822c0 1.005.817 1.822 1.823 1.822m0 3.382a.795.795 0 0 0 0 1.588.795.795 0 0 0 0-1.588"/></svg>