<svg width="56" height="70" viewBox="0 0 14.817 18.521" xmlns="http://www.w3.org/2000/svg"><path style="fill:#001;fill-opacity:1;fill-rule:nonzero;stroke:none;stroke-width:.35277775" transform="translate(-42.485 -199.293)" d="M50.135 205.134c.566-1.01.624-2.136.134-3.084-.478-.924-1.404-1.498-2.418-1.498-.594 0-1.192.186-1.775.551l.161.313c1.093-.448 2.15-.081 2.503.833.29.75.11 1.996-1.26 3.239l-.34.307-.088.088h3.467c-1.524 2.308-1.96 6.685-.828 9.037.515 1.07 1.31 1.635 2.3 1.635a.618.618 0 1 0-.599-.77c-.647-.54-1.046-1.384-1.163-2.467-.275-2.54 1.018-5.818 3.076-7.792l.316-.304.089-.088zm1.856-1.148a.795.795 0 0 0 0-1.587.795.795 0 0 0 0 1.587"/></svg>