<svg xmlns="http://www.w3.org/2000/svg" width="56" height="70" viewBox="0 0 14.817 18.521"><path style="fill:#000002;fill-opacity:1;fill-rule:nonzero;stroke:none;stroke-width:.35277775" d="M279.886 164.216c1.025-.086 1.459-.967 1.428-1.75-.036-.949-.718-1.973-2.145-1.98-1.124 0-1.98.494-2.474 1.427-.68 1.284-.56 3.28.23 4.764l-2.002-.004c.787-1.484.906-3.477.227-4.76-.494-.933-1.35-1.426-2.492-1.426-1.409.007-2.09 1.03-2.127 1.978-.03.784.403 1.666 1.428 1.751l.085.005h.005a.618.618 0 0 0 0-1.235.611.611 0 0 0-.602.538 1.194 1.194 0 0 1-.178-.704c.027-.548.405-1.187 1.429-1.187.625.014.905.47 1.031.85.409 1.24-.21 3.527-1.619 4.62l-.407.316h8.44l-.408-.316c-1.41-1.093-2.028-3.38-1.62-4.62.127-.38.407-.836 1.08-.85.976 0 1.354.64 1.381 1.187.012.25-.048.507-.178.704a.611.611 0 0 0-.602-.538.618.618 0 0 0 0 1.235h.004z" transform="translate(-268.514 -154.692)"/></svg>