<svg xmlns="http://www.w3.org/2000/svg" width="56" height="70" viewBox="0 0 14.817 18.521"><path style="fill:#000;fill-opacity:1;fill-rule:nonzero;stroke:none;stroke-width:.35277775" d="M168.672 166.67h-.884l-.022.007c.005.059.017.115.017.175a2.095 2.095 0 1 1-2.095-2.095c.673 0 1.266.323 1.649.816l3.553-3.576-.22-.355c-1.453.483-2.581.689-3.772.689-.8 0-1.674-.096-2.751-.302l-.262-.05.286 1.31.173-.037c.312-.067.602-.1.886-.1.932 0 1.832.32 2.563.898l-.465.468a3.47 3.47 0 0 0-2.096-.721 3.506 3.506 0 0 0-3.503 3.5 3.506 3.506 0 0 0 3.503 3.503c1.93 0 3.5-1.571 3.5-3.502 0-.161-.017-.32-.039-.475z" transform="translate(-158.901 -156.96)"/></svg>