<svg xmlns="http://www.w3.org/2000/svg" width="56" height="70" viewBox="0 0 14.817 18.521"><path style="fill:#00000c;fill-opacity:1;fill-rule:nonzero;stroke:none;stroke-width:.35277775" d="M237.847 156.446c0-.577-.146-1.136-.435-1.662a3.42 3.42 0 0 0-.112-3.527l-.324.115.011.088c.011.078.022.155.022.235 0 .735-.3 1.422-.843 1.934a2.846 2.846 0 0 1-.32.265l-.227.157.005.017a2.095 2.095 0 1 1-2.008.203l-.02-.007-.256-.106a2.69 2.69 0 0 1-.815-.528 2.64 2.64 0 0 1-.842-1.935c0-.081.012-.16.022-.237l.011-.088-.324-.115a3.495 3.495 0 0 0-.548 1.866c0 .576.146 1.135.436 1.664a3.425 3.425 0 0 0-.436 1.661 3.491 3.491 0 0 0 2.51 3.347v.78h-1.742v.75h1.742v1.72h1.983v-1.72h1.743v-.75h-1.743v-.78a3.492 3.492 0 0 0 2.51-3.347" transform="translate(-226.937 -147.888)"/></svg>