<svg width="56" height="70" viewBox="0 0 14.817 18.521" xmlns="http://www.w3.org/2000/svg"><path style="fill:#000;fill-opacity:1;fill-rule:nonzero;stroke:none;stroke-width:.35277775" transform="translate(17.992 -250.698)" d="M-6.617 260.467a3.53 3.53 0 0 1-.87 1.471c-.1.1-.21.182-.32.264l-.052.039c-.908.6-2.19.47-2.964-.303a2.316 2.316 0 0 1-.588-1.018l-.027-.094-.094-.027a2.324 2.324 0 0 1-1.018-.588 2.362 2.362 0 0 1 0-3.336 3.521 3.521 0 0 1 1.53-.887l-.072-.345a4.334 4.334 0 0 0-3.8 4.298 4.338 4.338 0 0 0 4.332 4.332 4.347 4.347 0 0 0 4.286-3.73zm-3.372-.296a.795.795 0 0 0 0-1.588.795.795 0 0 0 0 1.588"/></svg>