<svg width="56" height="70" viewBox="0 0 14.817 18.521" xmlns="http://www.w3.org/2000/svg"><path style="fill:#000010;fill-opacity:1;fill-rule:nonzero;stroke:none;stroke-width:.35277775" transform="translate(-43.996 -91.192)" d="m58.29 96.145.003-.005c-.03-.026-.06-.042-.122-.076-.219-.133-.528-.204-.895-.204-.756 0-1.878.33-2.758 1.255-.653.687-1.405 1.957-1.34 4.135h-.782v-2.18h-1.983v2.181h-.783c.066-2.178-.686-3.448-1.34-4.135-.88-.925-2.001-1.255-2.757-1.255-.366 0-.676.071-.865.19l-.15.088.004.005a.6.6 0 0 0-.24.479.618.618 0 1 0 1.193-.224c.737.108 1.312.437 1.715.98.848 1.145.733 2.93.341 4.218l-.068.228h2.95v.75H48.67v.75h1.743v1.72h1.983v-1.72h1.742v-.75h-1.742v-.75h2.95l-.069-.228c-.39-1.289-.506-3.074.342-4.218.403-.543.98-.872 1.716-.98a.617.617 0 1 0 1.192.224.602.602 0 0 0-.237-.477m-6.886 2.483a.795.795 0 0 0 0-1.588.795.795 0 0 0 0 1.588"/></svg>