<svg width="56" height="70" viewBox="0 0 14.817 18.521" xmlns="http://www.w3.org/2000/svg"><path style="fill:#000024;fill-opacity:1;fill-rule:nonzero;stroke:none;stroke-width:.352778" d="M147.964 71.706c0-.527-.098-1.049-.293-1.551l-.34.08a3.72 3.72 0 0 1-3.698 4.072 3.72 3.72 0 0 1-3.699-4.08l-.34-.082a4.308 4.308 0 0 0-.296 1.561 4.34 4.34 0 0 0 3.341 4.217v.443h-1.742v.75h1.742v1.72h1.983v-1.72h1.743v-.75h-1.743v-.442a4.342 4.342 0 0 0 3.342-4.218m-4.08-1.732c.395 0 .716.448.716 1 0 .553-.321 1.002-.717 1.002-.396 0-.718-.45-.718-1.002s.322-1 .718-1m-.25 2.824a1.825 1.825 0 0 0 1.822-1.824 1.825 1.825 0 0 0-1.823-1.822 1.825 1.825 0 0 0-1.823 1.822c0 1.006.818 1.824 1.823 1.824" transform="translate(-136.223 -64.734)"/></svg>