<svg xmlns="http://www.w3.org/2000/svg" width="56" height="70" viewBox="0 0 14.817 18.521"><path style="fill:#000016;fill-opacity:1;fill-rule:nonzero;stroke:none;stroke-width:.35277775" d="M290.475 189.371a.592.592 0 0 0-.515.296c-1.326-1.622-.343-3.302.887-5.402.96-1.642 2.05-3.503 2.046-5.614 0-1.346-.916-2.216-2.331-2.216a3.73 3.73 0 0 0-1.939.562v-1.031h1.5v-.75h-1.5v-.882h3.397v-.75h-5.38v1.632h-1.986v.75h1.986v3.908l.322-.472c.725-1.062 1.664-1.697 2.512-1.697.82 0 1.338.619 1.354 1.615.02 1.323-.59 2.557-1.235 3.863-.695 1.405-1.413 2.858-1.367 4.518.035 1.218.835 2.905 2.25 2.905a.618.618 0 0 0 0-1.235" transform="translate(-281.365 -172.835)"/></svg>