<svg width="56" height="70" viewBox="0 0 14.817 18.521" xmlns="http://www.w3.org/2000/svg"><path style="fill:#000;fill-opacity:1;fill-rule:nonzero;stroke:none;stroke-width:.352778" d="M180.487 184.518a.795.795 0 0 0 0 1.588.795.795 0 0 0 0-1.588m0 3.748a2.957 2.957 0 0 1-2.952-2.954 2.957 2.957 0 0 1 2.953-2.954 2.956 2.956 0 0 1 2.952 2.954 2.956 2.956 0 0 1-2.952 2.954m-.57-6.724a4.338 4.338 0 0 0-4.334 4.334 4.338 4.338 0 0 0 4.333 4.332 4.337 4.337 0 0 0 4.332-4.332 4.338 4.338 0 0 0-4.332-4.334" transform="translate(-172.508 -176.615)"/></svg>