<svg xmlns="http://www.w3.org/2000/svg" width="56" height="70" viewBox="0 0 14.817 18.521"><path style="fill:#000;fill-opacity:1;fill-rule:nonzero;stroke:none;stroke-width:.35277775" d="M-47.413 202.966c0 .553-.322 1.002-.717 1.002s-.718-.45-.718-1.002c0-.551.322-1 .718-1s.717.449.717 1m-.595-11.815v.353c.385 0 1.097 1.563 1.097 3.79v2.726h-1.096v-2.246h-.75v2.246h-1.094v-2.725c0-2.19.72-3.791 1.095-3.791v-.353c-1.532 0-3.078 1.763-3.078 5.702v4.64h.305l.04-.123c.283-.9.8-1.653 1.462-2.132l.098-.065a2.767 2.767 0 0 1 1.17-.451h.003v2.461a1.826 1.826 0 0 0-1.448 1.783 1.824 1.824 0 0 0 3.646 0c0-.876-.622-1.61-1.449-1.784v-2.46a2.8 2.8 0 0 1 1.174.456l.098.065.003-.002c.66.479 1.176 1.23 1.46 2.13l.038.122h.306v-4.64c0-3.939-1.547-5.702-3.08-5.702" transform="translate(55.79 -188.71)"/></svg>