<svg width="56" height="70" viewBox="0 0 14.817 18.521" xmlns="http://www.w3.org/2000/svg"><path style="fill:#000;fill-opacity:1;fill-rule:nonzero;stroke:none;stroke-width:.352778" d="M-240.48 169.996c.204.205.386.433.555.698l.095.149 1.132-.725-.222-.15c-1.506-1.021-2.448-1.903-3.25-3.041l-.32-.456v3.968l.125.037a2.082 2.082 0 0 1 1.5 2.002c0 1.158-.941 2.1-2.1 2.1a2.102 2.102 0 0 1-2.099-2.1c0-.994.706-1.86 1.678-2.058l.141-.028.005-5.23-.334-.08c-1.115 2.227-2.17 3.414-4.34 4.886l-.22.15 1.13.725.095-.149a4.16 4.16 0 0 1 .556-.698 4.127 4.127 0 0 1 2.495-1.174v.648c-1.73.219-3.064 1.707-3.064 3.459 0 1.93 1.57 3.501 3.501 3.501a3.504 3.504 0 0 0 3.501-3.501 3.494 3.494 0 0 0-1.952-3.116v-.71a3.97 3.97 0 0 1 1.392.893m-3.278 2.482a.795.795 0 0 0 1.588 0 .795.795 0 0 0-1.588 0" transform="translate(250.825 -161.495)"/></svg>