<svg xmlns="http://www.w3.org/2000/svg" width="56" height="70" viewBox="0 0 14.817 18.521"><path style="fill:#000004;fill-opacity:1;fill-rule:nonzero;stroke:none;stroke-width:.35277775" d="M47.494 203.577c0-1.158.942-2.1 2.1-2.1 1.157 0 2.1.942 2.1 2.1 0 1.158-.943 2.1-2.1 2.1-1.158 0-2.1-.942-2.1-2.1m2.634 3.798a3.492 3.492 0 0 0 2.51-3.348c0-1.93-1.57-3.5-3.5-3.5a3.506 3.506 0 0 0-3.502 3.5 3.491 3.491 0 0 0 2.51 3.347v.69h-1.743v.749h1.742v1.72h1.983v-1.72h1.743v-.75h-1.743Z" transform="translate(-41.729 -196.27)"/></svg>