<svg xmlns="http://www.w3.org/2000/svg" version="1.0" width="50" height="50"><path d="M21.176 1.206C15.228 2.72 9.988 7.091 8.001 12.977c-1.27 2.789-1.326 5.951-.424 8.85.81 3.647 2.776 6.864 5.092 9.748 2.922 4.571 3.105 12.154-.957 15.135-2.973 2.222-5.968-.306-6.389-2.63-1.016-3.503 1.805-8.381 5.743-8.381 1.228.333 2.558.474.763-.708-2.461-1.683-6.025-1.404-8.459.22C1.062 36.77.14 39.753.822 42.404c.483 3.161 2.863 5.788 5.9 6.724 2.988 1.15 6.62.986 9.193-.912 3.805-2.07 5.162-7.056 4.579-11.23-.726-3.12-1.532-5.852-3.432-9.267-3.188-4.804-5.447-11.774-2.645-16.915 1.65-3.442 5.805-6.46 10.195-6.51 3.87-.452 7.354 1.846 9.581 4.605 1.956 2.437 3.062 6.173 2.828 9.416-.146 4.75-2.91 9.488-5.271 13.093-1.3 2.548-1.52 4.577-1.616 7.464.31 3.875.863 7.575 4.364 9.439 4.513 2.62 11.309 1.353 13.67-3.573 1.722-3.472.802-8.545-3.04-10.152-2.676-1.484-6.34-.886-8.355 1.435 2.448.061 5.706-.222 6.777 2.605 1.485 2.931 1.405 7.523-1.968 9.104-2.808 1.187-5.737-1.397-6.292-4.093-.781-3.705-.683-7.802 1.197-11.18 1.48-2.682 3.84-4.814 4.904-7.748 2.369-5.323 1.293-11.695-2.154-16.295-3.226-4.71-8.832-7.55-14.53-7.41-1.18-.013-2.36.061-3.53.201z" style="fill:#fff;fill-opacity:1;stroke:none;stroke-width:1px;stroke-linecap:butt;stroke-linejoin:miter;stroke-opacity:1"/></svg>
