<svg xmlns="http://www.w3.org/2000/svg" width="12pt" height="12pt" viewBox="0 0 12 12" version="1.1">
  <g>
    <path d="M 1.6881836,9.5644531 H 0.6872066 C 0.77509727,9.3658854 0.86949827,9.141276 0.9704096,8.890625 1.0713209,8.639974 1.2047846,8.2867838 1.3708006,7.8310546 L 3.3239254,2.4355468 h 1.0498047 l 1.953125,5.3955078 C 6.4896155,8.2835286 6.623079,8.6367188 6.7272457,8.890625 6.8314124,9.1445312 6.9258134,9.3691406 7.0104489,9.5644531 H 6.0094723 L 5.3454098,7.6845703 H 2.3424806 Z M 5.0817379,6.9277343 3.8366207,3.3876953 2.6061516,6.9277343 Z" fill="#ffffff" stroke="none"></path>
    <path d="M 8.234277,3.1972656 8.1122067,3.7539062 C 7.9982744,3.6920573 7.8550452,3.6269531 7.6825192,3.5585937 7.5099931,3.4869791 7.3179358,3.4511718 7.1063473,3.4511718 c -0.2539063,0 -0.4296875,0.045573 -0.5273437,0.1367188 -0.094401,0.087891 -0.1416016,0.1790365 -0.1416016,0.2734375 0,0.07487 0.017904,0.1383464 0.053711,0.1904297 0.039063,0.052083 0.1171877,0.1009115 0.234375,0.1464843 0.1171875,0.042318 0.2945964,0.089519 0.5322266,0.1416016 0.3092448,0.065104 0.5745443,0.1692707 0.7958984,0.3125 0.2213542,0.1432292 0.3320313,0.3613282 0.3320313,0.6542969 0,0.2864584 -0.1285807,0.5273438 -0.3857422,0.7226562 C 7.7459958,6.2246094 7.436751,6.3222656 7.0721677,6.3222656 6.7922198,6.3222656 6.5350583,6.2864586 6.3006833,6.2148437 6.0695636,6.1432291 5.8872719,6.0569661 5.7538083,5.9560546 l 0.1708985,-0.571289 c 0.1529948,0.1302084 0.3385417,0.234375 0.5566406,0.3125 0.2213542,0.078125 0.4231771,0.1171875 0.6054688,0.1171875 0.1985677,0 0.3613281,-0.043945 0.4882812,-0.131836 0.1302083,-0.087891 0.1953125,-0.1871744 0.1953125,-0.2978515 0,-0.1171875 -0.061849,-0.2213542 -0.1855469,-0.3125 C 7.4644203,4.9778646 7.2137692,4.8867187 6.8329098,4.7988281 6.4162431,4.7044271 6.1428056,4.5791015 6.0125973,4.4228515 5.8856442,4.2666015 5.8221676,4.0908203 5.8221676,3.8955078 c 0,-0.097656 0.037435,-0.2213542 0.1123047,-0.3710938 C 6.0093421,3.3746744 6.141178,3.2412109 6.3299801,3.1240234 6.5220374,3.0035807 6.7922197,2.9433593 7.140527,2.9433593 c 0.2473958,0 0.4606119,0.027669 0.6396484,0.083008 0.1822917,0.052083 0.3336589,0.1090495 0.4541016,0.1708983 z" fill="#ffffff" stroke="none"></path>
    <path d="m 11.244433,5.4189453 0.06836,0.5566406 c -0.175781,0.1204428 -0.35319,0.2083334 -0.532227,0.2636719 -0.175781,0.055339 -0.392252,0.083008 -0.649414,0.083008 -0.305989,0 -0.5843093,-0.065104 -0.8349603,-0.1953125 C 9.0455399,5.9934897 8.8453447,5.8046875 8.6956051,5.5605468 8.5491208,5.3164062 8.4758786,5.0250651 8.4758786,4.6865234 8.4758786,4.367513 8.5474932,4.0761719 8.6907223,3.8125 8.8372067,3.5488281 9.0422848,3.3388671 9.3059567,3.1826171 9.5728838,3.0231119 9.888639,2.9433593 10.253222,2.9433593 c 0.224609,0 0.419922,0.026042 0.585937,0.078125 0.166016,0.048828 0.3125,0.1123046 0.439454,0.1904297 L 11.156542,3.7832031 C 11.003547,3.6790365 10.848925,3.6009115 10.692675,3.5488281 10.53968,3.4934891 10.375292,3.4658201 10.199511,3.4658201 c -0.302734,0 -0.5582679,0.1057943 -0.7666012,0.3173828 -0.2050781,0.2083334 -0.3076172,0.4996745 -0.3076172,0.8740234 0,0.3417969 0.096029,0.6184896 0.288086,0.8300781 0.1920573,0.2083334 0.4541015,0.3125 0.7861324,0.3125 0.205078,0 0.392253,-0.032552 0.561523,-0.097656 0.172526,-0.065104 0.333659,-0.159505 0.483399,-0.2832031 z" fill="#ffffff" stroke="none"></path>
  </g>
</svg>