<svg xmlns="http://www.w3.org/2000/svg" width="12pt" height="12pt" viewBox="0 0 12 12" version="1.1">
  <g>
    <path d="M 4.4039481,8.5634765 6.5279716,2.4355468 H 7.3434012 L 6.9381277,3.5927734 4.8922294,9.5644531 H 3.940081 L 1.8892995,3.5927734 1.4742605,2.4355468 h 0.830078 z M 1.2057054,2.4355468 H 2.0601985 L 1.9234794,3.680664 1.7672295,9.5644531 H 0.8639094 c 0.019533,-0.1367187 0.039063,-0.3662109 0.05859,-0.6884766 0.019533,-0.3255208 0.040693,-0.7063801 0.06348,-1.1425781 0.022787,-0.4361979 0.043947,-0.8951823 0.06348,-1.3769531 0.022787,-0.485026 0.042317,-0.9586589 0.05859,-1.4208985 0.019533,-0.4622395 0.03581,-0.8821614 0.04883,-1.2597656 0.016273,-0.3776041 0.027667,-0.6787109 0.03418,-0.9033203 l 0.01465,-0.3369141 z M 7.9439872,9.5644531 H 7.0406669 L 6.9039481,3.680664 6.7476981,2.4355468 h 0.8544922 c 0.016276,0.530599 0.035807,1.0921225 0.058594,1.6845703 0.022787,0.592448 0.045573,1.1800131 0.068359,1.7626954 0.026042,0.5826823 0.050456,1.1263021 0.073242,1.6308593 0.026042,0.5045574 0.050456,0.9375001 0.073242,1.2988282 0.026042,0.3580729 0.048829,0.6087239 0.06836,0.7519531 z" fill="#ffffff" stroke="none"></path>
    <path d="m 11.067732,5.4189453 0.06836,0.5566406 c -0.175782,0.1204428 -0.353191,0.2083334 -0.532227,0.2636719 -0.175781,0.055339 -0.392253,0.083008 -0.6494141,0.083008 -0.3059895,0 -0.5843099,-0.065104 -0.834961,-0.1953125 C 8.868838,5.9934898 8.6686427,5.8046877 8.5189031,5.560547 8.3724187,5.3164064 8.2991764,5.0250653 8.2991764,4.6865236 c 0,-0.3190104 0.071615,-0.6103515 0.2148438,-0.8740234 C 8.6605046,3.5488283 8.8655827,3.3388673 9.1292546,3.1826173 9.3961817,3.0231121 9.7119369,2.9433595 10.07652,2.9433595 c 0.22461,0 0.419922,0.026042 0.585938,0.078125 0.166015,0.048828 0.3125,0.1123046 0.439453,0.1904297 l -0.12207,0.5712891 c -0.152995,-0.1041666 -0.307618,-0.1822916 -0.463868,-0.234375 -0.152994,-0.055339 -0.317382,-0.083008 -0.493164,-0.083008 -0.3027341,0 -0.5582679,0.1057943 -0.7666013,0.3173828 -0.2050781,0.2083334 -0.3076171,0.4996745 -0.3076171,0.8740234 0,0.3417969 0.096029,0.6184896 0.2880858,0.8300781 0.1920574,0.2083334 0.4541017,0.3125 0.7861326,0.3125 0.205078,0 0.392253,-0.032552 0.561524,-0.097656 0.172526,-0.065104 0.333659,-0.1595051 0.483399,-0.2832033 z" fill="#ffffff" stroke="none"></path>
  </g>
</svg>