<svg width="16" height="16" viewBox="0 0 12 12" xmlns="http://www.w3.org/2000/svg"><path style="color:#000;fill:#fff;stroke-width:.33333333;stroke-miterlimit:10;fill-opacity:1;stroke:#000;stroke-opacity:1;stroke-dasharray:none" d="M8 .39 5.86 2.532c.49.492.982.983 1.474 1.473V6.39L5.646 4.703V2.62H2.62v3.027h2.084l1.688 1.688H4.008c-.493-.49-.985-.983-1.477-1.475L.391 8c.714.712 1.427 1.425 2.14 2.139.492-.492.983-.981 1.473-1.473H6.39l-1.688 1.688H2.62v3.027h3.027v-2.084l1.688-1.688v2.385L5.859 13.47 8 15.609l2.14-2.14c-.49-.492-.982-.983-1.474-1.475V9.61l1.688 1.688v2.084h3.027v-3.027h-2.084L9.609 8.666h2.385l1.475 1.475L15.609 8c-.714-.712-1.427-1.425-2.14-2.139l-1.475 1.473H9.61l1.688-1.688h2.084V2.62h-3.027v2.084L8.666 6.391V4.004c.493-.49.983-.982 1.475-1.473Z" transform="scale(.75)"/></svg>