<svg width="16" height="16" viewBox="0 0 12 12" xmlns="http://www.w3.org/2000/svg"><g style="stroke:#000;fill:#fff;fill-opacity:1;stroke-opacity:1;stroke-width:.25;stroke-miterlimit:4;stroke-dasharray:none"><path style="color:#000;fill:#fff;fill-opacity:1;stroke:#000;stroke-width:.333333;stroke-miterlimit:4;stroke-dasharray:none;stroke-opacity:1" d="M14.195.861 13.1 1.96 12 3.057l-1.096 1.097-1.1 1.098L8.71 6.35l-1.1 1.097-1.095 1.098.941.941 1.098-1.095 1.097-1.1 1.098-1.096 1.098-1.1L12.943 4l1.098-1.1 1.098-1.095-.944-.944zM8.435.98 3.617 8.69A3.345 3.345 0 0 0 .666 12c0 1.834 1.5 3.334 3.334 3.334a3.345 3.345 0 0 0 3.31-2.951l7.711-4.819-.708-1.128-7.163 4.476a3.341 3.341 0 0 0-.793-1.27 3.341 3.341 0 0 0-1.27-.792l4.477-7.162-1.128-.71zM4 10c.557 0 1.052.224 1.414.586.362.362.586.857.586 1.414 0 1.114-.886 2-2 2-1.114 0-2-.886-2-2s.886-2 2-2z" transform="scale(.75)"/></g></svg>