<svg width="16" height="16" viewBox="0 0 12 12" xmlns="http://www.w3.org/2000/svg"><g style="stroke:#fff;stroke-width:.99975"><path style="color:#000;fill:#fff;stroke:#000;stroke-width:.33333333;stroke-opacity:1;stroke-miterlimit:4;stroke-dasharray:none" d="M7.334 1.334v3.023A5.656 5.656 0 0 0 3 2.334v1.332C5.4 3.666 7.334 5.6 7.334 8c0 2.4-1.934 4.334-4.334 4.334v1.332a5.656 5.656 0 0 0 4.334-2.023v3.023h1.332v-3.023A5.656 5.656 0 0 0 13 13.666v-1.332A4.326 4.326 0 0 1 8.666 8c0-2.4 1.934-4.334 4.334-4.334V2.334a5.656 5.656 0 0 0-4.334 2.023V1.334H7.334z" transform="scale(.75)"/></g></svg>