<svg width="16" height="16" viewBox="0 0 12 12" xmlns="http://www.w3.org/2000/svg"><path style="color:#000;fill:#fff;stroke-width:.33333333;stroke-miterlimit:10;fill-opacity:1;stroke:#000;stroke-opacity:1;stroke-dasharray:none" d="M5.11 1.334V4H1.333v1.334h3.775v2H1.334v1.332h8.223v1.639c-.03.016-.068.024-.096.04a7.165 7.165 0 0 0-1.053.786c-.316.278-.601.566-.879.844C6.42 13.085 5.556 14 3.557 14 2.687 14 2 13.313 2 12.443c0-.862.687-1.552 1.557-1.552V9.557a2.9 2.9 0 0 0-2.891 2.886 2.9 2.9 0 0 0 2.89 2.891c2.444 0 3.804-1.307 4.915-2.418.277-.278.546-.543.82-.785.085-.075.18-.13.266-.2v.512a2.9 2.9 0 0 0 2.886 2.891 2.89 2.89 0 0 0 2.891-2.89 2.9 2.9 0 0 0-2.89-2.887c-.574 0-1.083.08-1.553.203V8.666h3.775V7.334h-3.775v-2h3.775V4h-3.775V1.334H9.557V4H6.443V1.334H5.11zm1.333 4h3.114v2H6.443v-2zm6 5.557c.87 0 1.557.69 1.557 1.552 0 .412-.164.811-.455 1.102-.291.29-.69.455-1.102.455a1.545 1.545 0 0 1-1.552-1.557V11.17c.09-.033.161-.086.257-.113a4.75 4.75 0 0 1 1.295-.166z" transform="scale(.75)"/></svg>