<svg width="16" height="16" viewBox="0 0 12 12" xmlns="http://www.w3.org/2000/svg"><g style="stroke:#000"><path style="color:#000;fill:#fff;stroke:#000;stroke-width:.33333333;stroke-miterlimit:10;stroke-opacity:1;fill-opacity:1;stroke-dasharray:none" d="M8 .666A2.345 2.345 0 0 0 5.666 3 2.345 2.345 0 0 0 8 5.334 2.345 2.345 0 0 0 10.334 3 2.345 2.345 0 0 0 8 .666zM8 2c.563 0 1 .437 1 1s-.437 1-1 1-1-.437-1-1 .437-1 1-1zM1.334 5.666V7h2.654c-.065 1.963-.414 3.72-.918 4.979-.28.7-.608 1.242-.924 1.576-.315.333-.578.445-.812.445v1.334c.685 0 1.3-.356 1.781-.865.482-.51.868-1.186 1.192-1.994.585-1.464.951-3.366 1.015-5.475h5.356c.064 2.109.43 4.011 1.015 5.475.324.808.71 1.484 1.192 1.994s1.096.865 1.781.865V14c-.234 0-.497-.112-.812-.445-.316-.334-.644-.877-.924-1.576-.504-1.259-.853-3.016-.918-4.979h2.654V5.666H1.334zM8 7.334a2.343 2.343 0 0 0-2.334 2.332A2.345 2.345 0 0 0 8 12a2.345 2.345 0 0 0 2.334-2.334A2.343 2.343 0 0 0 8 7.334zm0 1.332c.563 0 1 .437 1 1s-.437 1-1 1-1-.437-1-1 .437-1 1-1z" transform="scale(.75)"/></g></svg>