<svg width="16" height="16" viewBox="0 0 12 12" xmlns="http://www.w3.org/2000/svg"><path style="color:#000;fill:#fff;stroke-width:.33333333;stroke-miterlimit:10;fill-opacity:1;stroke:#000;stroke-opacity:1;stroke-dasharray:none" d="M5.172.861A3.992 3.992 0 0 0 4 3.688c0 1.478.813 2.774 2.014 3.466a2.883 2.883 0 0 0-.903 2.09c0 .952.469 1.801 1.186 2.328-.35.4-.565.92-.565 1.489A2.278 2.278 0 0 0 8 15.328a2.278 2.278 0 0 0 2.268-2.267c0-.569-.214-1.09-.565-1.489a2.891 2.891 0 0 0 1.186-2.328c0-.82-.349-1.562-.903-2.09A4.008 4.008 0 0 0 12 3.688c0-1.1-.449-2.103-1.172-2.827l-.943.944c.484.484.781 1.144.781 1.883a2.659 2.659 0 0 1-2 2.582V2.666H7.334V6.27a2.659 2.659 0 0 1-2-2.582c0-.74.297-1.4.781-1.883L5.172.86zm2.162 6.977v2.812a1.547 1.547 0 0 1-.889-1.406c0-.625.362-1.158.889-1.406zm1.332 0c.527.248.889.781.889 1.406 0 .625-.362 1.159-.889 1.406V7.838zm-1.332 4.564v1.317a.931.931 0 0 1-.27-.658.93.93 0 0 1 .27-.659zm1.332 0c.166.168.27.4.27.659 0 .258-.104.49-.27.658v-1.317z" transform="scale(.75)"/></svg>