<svg width="16" height="16" viewBox="0 0 12 12" xmlns="http://www.w3.org/2000/svg"><path style="color:#000;fill:#fff;stroke-width:.33333333;stroke-miterlimit:10;stroke:#000;stroke-opacity:1;stroke-dasharray:none" d="M8 .666a7.34 7.34 0 0 0-5.186 2.148l.944.944a6.006 6.006 0 0 1 3.576-1.719v4.352L5.406 4.463l-.943.943L7.057 8l-2.594 2.594.943.943L7.334 9.61v4.352a6.006 6.006 0 0 1-3.576-1.719l-.944.944A7.339 7.339 0 0 0 8 15.334a7.34 7.34 0 0 0 5.186-2.148l-.944-.944a6.006 6.006 0 0 1-3.576 1.719V9.609l1.928 1.928.943-.943L8.943 8l2.594-2.594-.943-.943L8.666 6.39V2.039c1.345.15 2.61.752 3.576 1.719l.944-.944A7.339 7.339 0 0 0 8 .666z" transform="scale(.75)"/></svg>