<svg width="16" height="16" viewBox="0 0 12 12" xmlns="http://www.w3.org/2000/svg"><path style="color:#000;fill:#fff;stroke-width:.33333333;stroke-miterlimit:10;stroke:#000;stroke-opacity:1;stroke-dasharray:none" d="M4.666.666c-2.2 0-4 1.8-4 4s1.8 4 4 4V7.334A2.661 2.661 0 0 1 2 4.666 2.66 2.66 0 0 1 4.666 2h2.668v12.666h1.332V2h2.668A2.66 2.66 0 0 1 14 4.666a2.661 2.661 0 0 1-2.666 2.668v1.332c2.2 0 4-1.8 4-4s-1.8-4-4-4H4.666zm0 1.668a2.341 2.341 0 0 0-2.332 2.332A2.343 2.343 0 0 0 4.666 7 2.345 2.345 0 0 0 7 4.666a2.343 2.343 0 0 0-2.334-2.332zm6.668 0A2.343 2.343 0 0 0 9 4.666C9 5.946 10.053 7 11.334 7s2.332-1.053 2.332-2.334a2.341 2.341 0 0 0-2.332-2.332zM4.666 3.666c.563 0 1 .437 1 1s-.437 1-1 1-1-.437-1-1 .437-1 1-1zm6.668 0c.563 0 1 .437 1 1s-.437 1-1 1-1-.437-1-1 .437-1 1-1z" transform="scale(.75)"/></svg>