<svg width="16" height="16" viewBox="0 0 12 12" xmlns="http://www.w3.org/2000/svg"><path style="color:#000;fill:#fff;stroke-width:.333;stroke:#000;stroke-opacity:1;fill-opacity:1;stroke-miterlimit:4;stroke-dasharray:none" d="M11.307.666V2h1.75l-2.649 2.65a5.967 5.967 0 0 0-3.742-1.316c-3.304 0-6 2.696-6 6s2.696 6 6 6 6-2.696 6-6a5.967 5.967 0 0 0-1.316-3.742L14 2.943v1.75h1.334V.666h-4.027zm-4.641 4a4.663 4.663 0 0 1 4.668 4.668A4.662 4.662 0 0 1 6.666 14 4.66 4.66 0 0 1 2 9.334a4.662 4.662 0 0 1 4.666-4.668z" transform="scale(.75)"/></svg>