<svg width="16" height="16" viewBox="0 0 12 12" xmlns="http://www.w3.org/2000/svg"><path style="color:#000;fill:#fff;stroke-width:.33333333;stroke-miterlimit:10;fill-opacity:1;stroke:#000;stroke-opacity:1;stroke-dasharray:none" d="M4.666 1.334A3.33 3.33 0 0 0 6.006 4a3.331 3.331 0 0 0-1.34 2.666 3.346 3.346 0 0 0 2.668 3.266v1.402h-2v1.332h2v2h1.332v-2h2v-1.332h-2V9.932a3.346 3.346 0 0 0 2.668-3.266A3.331 3.331 0 0 0 9.994 4a3.331 3.331 0 0 0 1.34-2.666H10c0 1.114-.886 2-2 2s-2-.886-2-2H4.666zM8 4.666c1.114 0 2 .886 2 2 0 1.114-.886 2-2 2s-2-.886-2-2c0-1.114.886-2 2-2z" transform="scale(.75)"/></svg>