<svg width="16" height="16" viewBox="0 0 12 12" xmlns="http://www.w3.org/2000/svg"><path style="color:#000;fill:#fff;stroke:#000;stroke-width:.25;stroke-miterlimit:1.5;stroke-dasharray:none;stroke-opacity:1" d="M4.786.5a5.566 5.566 0 0 1 1.107.112A5.51 5.51 0 0 1 10.286 6a5.51 5.51 0 0 1-5.5 5.5 5.492 5.492 0 0 1-1.868-.326 5.291 5.291 0 0 0 2.2-.998 5.271 5.271 0 0 0-2.2-9.35A5.46 5.46 0 0 1 3.68.612 5.492 5.492 0 0 1 4.786.5Zm1.48 1.299C7.372 2.95 8.173 4.36 8.173 6c0 1.64-.801 3.049-1.905 4.201C8.018 9.586 9.286 7.966 9.286 6c0-1.966-1.268-3.586-3.02-4.201z"/></svg>