<svg width="16" height="16" viewBox="0 0 12 12" xmlns="http://www.w3.org/2000/svg"><path style="color:#000;fill:#fff;stroke:#000;stroke-width:.333333;stroke-miterlimit:1.5;stroke-dasharray:none;stroke-opacity:1" d="M9.334.666a7.42 7.42 0 0 0-1.477.15C4.52 1.502 2 4.463 2 8c0 3.537 2.52 6.498 5.857 7.184a7.314 7.314 0 0 0 1.477.15 7.323 7.323 0 0 0 2.49-.436 7.055 7.055 0 0 1-2.933-1.33 7.029 7.029 0 0 1 2.933-12.466 7.28 7.28 0 0 0-1.016-.285A7.323 7.323 0 0 0 9.335.665zM7.359 2.398C5.887 3.935 4.82 5.814 4.82 8c0 2.186 1.068 4.065 2.54 5.602-2.335-.82-4.025-2.98-4.025-5.602 0-2.621 1.69-4.781 4.025-5.602z" transform="scale(.75)"/></svg>