<svg width="16" height="16" viewBox="0 0 12 12" xmlns="http://www.w3.org/2000/svg"><g style="fill:none;stroke:#000"><path style="color:#000;fill:#fff;stroke:#000;stroke-width:.33333333;fill-opacity:1;stroke-opacity:1;stroke-miterlimit:4;stroke-dasharray:none" d="M8 .666C3.958.666.666 3.958.666 8S3.958 15.334 8 15.334 15.334 12.042 15.334 8 12.042.666 8 .666zM8 2c3.322 0 6 2.678 6 6a5.97 5.97 0 0 1-.229 1.557h-3.345c.29-.451.465-.984.465-1.557 0-1.589-1.302-2.89-2.891-2.89S5.11 6.41 5.11 8c0 .794.325 1.517.849 2.041l-.004.004 3.703 3.695C9.128 13.893 8.58 14 8 14a5.99 5.99 0 0 1-6-6c0-3.322 2.678-6 6-6zm0 4.443c.87 0 1.557.688 1.557 1.557 0 .87-.688 1.557-1.557 1.557a1.55 1.55 0 0 1-1.063-.416l-.039-.04-.003.004A1.55 1.55 0 0 1 6.443 8c0-.87.688-1.557 1.557-1.557zm.69 4.448h4.54a5.959 5.959 0 0 1-2.25 2.29l-2.29-2.29z" transform="scale(.75)"/></g></svg>