<svg width="16" height="16" viewBox="0 0 12 12" xmlns="http://www.w3.org/2000/svg"><path style="color:#000;fill:#fff;stroke-width:.33333333;stroke-miterlimit:10;stroke:#000;stroke-opacity:1;stroke-dasharray:none" d="M4 2v12h7.334v-1.334h-6v-4H8c1.02 0 1.99-.22 2.748-.77C11.507 7.347 12 6.434 12 5.334c0-1.1-.493-2.014-1.252-2.563C9.989 2.223 9.019 2 8 2H4zm1.334 1.334H8c.82 0 1.518.193 1.967.518.448.324.699.743.699 1.482s-.25 1.156-.7 1.48c-.448.325-1.147.52-1.966.52H5.334v-4z" transform="scale(.75)"/></svg>