<svg width="16" height="16" viewBox="0 0 12 12" xmlns="http://www.w3.org/2000/svg"><path style="color:#000;fill:#fff;stroke-width:.33333333;stroke-miterlimit:10;stroke:#000;stroke-opacity:1;stroke-dasharray:none" d="M8 .666A3.344 3.344 0 0 0 4.666 4c0 1.834 1.5 3.334 3.334 3.334s3.334-1.5 3.334-3.334S9.834.666 8 .666zM8 2c1.114 0 2 .886 2 2 0 1.114-.886 2-2 2s-2-.886-2-2c0-1.114.886-2 2-2zM2.334 4c0 2.896 2.191 5.293 5 5.625v1.541H4.666V12.5h2.668v2.166h1.332V12.5h2.668v-1.334H8.666V9.625c2.809-.332 5-2.73 5-5.625h-1.332c0 2.4-1.934 4.334-4.334 4.334A4.326 4.326 0 0 1 3.666 4H2.334z" transform="scale(.75)"/></svg>