<svg width="16" height="16" viewBox="0 0 12 12" xmlns="http://www.w3.org/2000/svg"><g style="stroke-width:.25;stroke-miterlimit:4;stroke-dasharray:none"><path style="color:#000;fill:#fff;stroke-width:.33333334;stroke:#000;stroke-opacity:1;stroke-miterlimit:4;stroke-dasharray:none" d="M8.166.666V4h-1a4.01 4.01 0 0 0-4 4c0 2.201 1.799 4 4 4H10.5c.56 0 1 .44 1 1s-.44 1-1 1-1-.44-1-1H8.166a2.345 2.345 0 0 0 2.334 2.334c1.28 0 2.334-1.053 2.334-2.334s-1.053-2.334-2.334-2.334H7.166C5.686 10.666 4.5 9.481 4.5 8s1.185-2.666 2.666-2.666h1V8H9.5V2h2.666V.666h-4z" transform="scale(.75)"/></g></svg>