<svg width="16" height="16" viewBox="0 0 12 12" xmlns="http://www.w3.org/2000/svg"><path style="color:#000;fill:#fff;stroke-width:.33333333;stroke-miterlimit:10;stroke:#000;stroke-opacity:1;stroke-dasharray:none" d="M6 1.334v2H4v1.332h2V9h1.334c0-1.114.886-2 2-2 1.114 0 2 .886 2 2 0 .532-.21 1.038-.586 1.414-1.233 1.233-2.082 2.368-2.082 4.252H10c0-1.532.506-2.125 1.69-3.309A3.335 3.335 0 0 0 12.665 9a3.342 3.342 0 0 0-3.332-3.334c-.748 0-1.442.251-2 .672V4.666h2V3.334h-2v-2H6z" transform="scale(.75)"/></svg>