<svg width="16" height="16" viewBox="0 0 12 12" xmlns="http://www.w3.org/2000/svg"><path style="color:#000;fill:#fff;stroke-width:.33333333;stroke-miterlimit:10;stroke:#000;stroke-opacity:1;stroke-dasharray:none" d="M3.834.666A2.345 2.345 0 0 0 1.5 3a2.345 2.345 0 0 0 2.334 2.334H6.5v3.332h.666c3.322 0 6 2.678 6 6H14.5c0-3.806-2.95-6.843-6.666-7.197V5.334h1V4h-1V1.334H6.5V4h-.564c.146-.304.23-.642.23-1A2.343 2.343 0 0 0 3.834.666zm0 1.334c.563 0 1 .437 1 1s-.437 1-1 1-1-.437-1-1 .437-1 1-1z" transform="scale(.75)"/></svg>