<svg width="16" height="16" viewBox="0 0 12 12" xmlns="http://www.w3.org/2000/svg"><path style="color:#000;fill:#fff;stroke-width:.33333333;stroke-miterlimit:10;stroke:#000;stroke-opacity:1;stroke-dasharray:none" d="M8 .666C3.958.666.666 3.958.666 8S3.958 15.334 8 15.334 15.334 12.042 15.334 8 12.042.666 8 .666zM8 2c3.322 0 6 2.678 6 6s-2.678 6-6 6a5.99 5.99 0 0 1-6-6c0-3.322 2.678-6 6-6zm0 4.135c-1.022 0-1.865.843-1.865 1.865S6.978 9.865 8 9.865 9.865 9.022 9.865 8 9.022 6.135 8 6.135z" transform="scale(.75)"/></svg>