<svg width="16" height="16" viewBox="0 0 12 12" xmlns="http://www.w3.org/2000/svg"><path style="color:#000;fill:#fff;stroke-width:.33333333;stroke-miterlimit:10;stroke:#000;stroke-opacity:1;stroke-dasharray:none" d="M4 1.334V8h1.334V5.334h2v5.432A2.346 2.346 0 0 0 5.666 13c0 1.28 1.053 2.334 2.334 2.334s2.334-1.053 2.334-2.334c0-1.05-.708-1.945-1.668-2.234V5.334h2V8H12V1.334h-1.334V4h-2V3H7.334v1h-2V1.334H4zM8 12c.563 0 1 .437 1 1s-.437 1-1 1-1-.437-1-1 .437-1 1-1z" transform="scale(.75)"/></svg>