<svg width="16" height="16" viewBox="0 0 12 12" xmlns="http://www.w3.org/2000/svg"><g style="stroke:#000;stroke-opacity:1;stroke-width:.25;stroke-miterlimit:4;stroke-dasharray:none"><path style="color:#000;fill:#fff;stroke:#000;stroke-width:.333333;stroke-miterlimit:4;stroke-dasharray:none;stroke-opacity:1" d="M8 .39 4.195 4.196l.944.944 2.195-2.2v4.45A4.017 4.017 0 0 0 4 11.334c0 2.2 1.8 4 4 4s4-1.8 4-4a4.017 4.017 0 0 0-3.334-3.945V2.94l2.195 2.198.944-.944zm0 8.276a2.661 2.661 0 0 1 2.666 2.668A2.66 2.66 0 0 1 8 14a2.66 2.66 0 0 1-2.666-2.666A2.661 2.661 0 0 1 8 8.666Zm0 1.068c-.878 0-1.6.722-1.6 1.6 0 .878.722 1.598 1.6 1.598.878 0 1.6-.72 1.6-1.598 0-.878-.722-1.6-1.6-1.6z" transform="scale(.75)"/></g></svg>