<svg width="16" height="16" viewBox="0 0 12 12" xmlns="http://www.w3.org/2000/svg"><path style="color:#000;fill:#fff;stroke-width:.33333333;stroke-linejoin:miter;stroke-miterlimit:10;stroke:#000;stroke-opacity:1;stroke-dasharray:none" d="M1.74.643v1.334h8.885c-.172 1.359-.873 2.575-1.822 3.505C7.61 4.615 6.263 4 4.867 4 3.391 4 2.334 5.121 2.334 6.334c0 1.24 1.09 2.385 2.557 2.332 1.377-.05 2.716-.667 3.904-1.525.972.961 1.687 2.232 1.84 3.634A2.346 2.346 0 0 0 9 13c0 1.28 1.053 2.334 2.334 2.334s2.332-1.053 2.332-2.334c0-1.059-.72-1.961-1.693-2.242-.15-1.732-.961-3.268-2.096-4.447 1.117-1.15 1.924-2.637 2.09-4.334h2.293V.643H1.74zm3.127 4.691c.926 0 1.869.414 2.756.979-.892.565-1.841.987-2.78 1.021-.743.027-1.177-.572-1.177-1 0-.456.365-1 1.201-1zM11.334 12c.563 0 1 .437 1 1s-.437 1-1 1-1-.437-1-1 .437-1 1-1z" transform="scale(.75)"/></svg>