<svg width="16" height="16" viewBox="0 0 12 12" xmlns="http://www.w3.org/2000/svg"><path style="color:#000;fill:#fff;stroke-width:.333;fill-opacity:1;stroke:#000;stroke-opacity:1;stroke-miterlimit:4;stroke-dasharray:none" d="M8 .666a4.677 4.677 0 0 0-4.666 4.668 4.677 4.677 0 0 0 4 4.617v1.383h-2v1.332h2v2h1.332v-2h2v-1.332h-2V9.951a4.677 4.677 0 0 0 4-4.617A4.677 4.677 0 0 0 8 .666zM8 2a3.324 3.324 0 0 1 3.334 3.334A3.323 3.323 0 0 1 8 8.666a3.323 3.323 0 0 1-3.334-3.332A3.324 3.324 0 0 1 8 2z" transform="scale(.75)"/></svg>