<svg width="16" height="16" viewBox="0 0 12 12" xmlns="http://www.w3.org/2000/svg"><path style="color:#000;fill:#fff;fill-opacity:1;stroke:#000;stroke-width:.333333;stroke-miterlimit:2;stroke-dasharray:none;stroke-opacity:1" transform="scale(.75)" d="M7.594.805s-.41.322-.592.88c-.183.559-.13 1.371.441 2.237.402.608.35.907.29 1.092 0 0-.05.134-.14.236l.813 1.057s.41-.321.592-.88c.183-.557.13-1.374-.441-2.24-.402-.608-.35-.903-.29-1.087 0 0 .05-.116.14-.239zM6.229 6.307l-1.122.718L8 11.533l2.893-4.508-1.122-.718L8 9.068ZM1.334 8.299v1.334h2.635l3.47 5.396h1.122l3.47-5.396h2.635V8.299h-3.363L8 13.438l-3.303-5.14Z"/></svg>