<svg xmlns="http://www.w3.org/2000/svg" version="1.0" width="50" height="50"><path d="M28.426 49.646c5.948-1.515 11.189-5.885 13.176-11.771 1.27-2.79 1.326-5.952.423-8.851-.81-3.646-2.776-6.863-5.092-9.747-2.922-4.572-3.105-12.155.957-15.135 2.973-2.223 5.969.305 6.39 2.63 1.016 3.502-1.806 8.38-5.744 8.38-1.228-.332-2.558-.474-.763.709 2.462 1.683 6.026 1.403 8.459-.22 2.308-1.56 3.231-4.544 2.548-7.195-.482-3.16-2.863-5.787-5.899-6.724-2.99-1.149-6.62-.985-9.193.913-3.806 2.07-5.163 7.056-4.58 11.23.726 3.12 1.532 5.851 3.432 9.267 3.188 4.804 5.448 11.774 2.645 16.915-1.649 3.442-5.805 6.46-10.195 6.51-3.87.452-7.354-1.847-9.581-4.605-1.955-2.437-3.062-6.173-2.827-9.416.145-4.75 2.908-9.488 5.27-13.093 1.3-2.548 1.52-4.577 1.616-7.464-.31-3.875-.862-7.575-4.364-9.44C10.591-.08 3.795 1.188 1.435 6.113-.287 9.585.632 14.658 4.474 16.265c2.676 1.484 6.34.885 8.355-1.435-2.448-.062-5.705.221-6.777-2.606-1.485-2.93-1.405-7.522 1.969-9.103 2.807-1.187 5.737 1.397 6.291 4.093.781 3.704.683 7.801-1.196 11.179-1.48 2.683-3.841 4.815-4.905 7.75-2.368 5.321-1.292 11.693 2.154 16.294 3.226 4.71 8.832 7.55 14.53 7.41 1.18.013 2.36-.061 3.531-.201z" style="fill:#000;fill-opacity:1;stroke:none;stroke-width:1px;stroke-linecap:butt;stroke-linejoin:miter;stroke-opacity:1"/></svg>