<svg width="16" height="16" viewBox="0 0 12 12" xmlns="http://www.w3.org/2000/svg">
  <path fill="none" stroke="#ffffff" stroke-width=".6" stroke-linecap="butt" stroke-linejoin="miter" stroke-miterlimit="4" d="M3.172 8.347a1.249 1.249 0 0 0-1.768 0 1.249 1.249 0 0 0 0 1.767 1.249 1.249 0 0 0 1.768 0 1.249 1.249 0 0 0 0-1.767zm7.424 0a1.249 1.249 0 0 0-1.768 0 1.249 1.249 0 0 0 0 1.767 1.249 1.249 0 0 0 1.768 0 1.249 1.249 0 0 0 0-1.767zm-1.768 0a4.003 4.003 0 0 0 0-5.657 4.003 4.003 0 0 0-5.656 0 4.003 4.003 0 0 0 0 5.657"></path>
  <text x="4.82" y="6.18" font-family="Andika, Arial, sans-serif" font-size="3.15px" fill="#ffffff">T</text>
</svg>