<svg xmlns="http://www.w3.org/2000/svg" width="32.976" height="32.976" viewBox="0 0 24.732 24.732"><defs><filter style="color-interpolation-filters:sRGB" id="a" x="-.096" width="1.192" y="-.096" height="1.192"><feGaussianBlur stdDeviation=".533"/></filter></defs><path d="M15.637 8.97a6.666 6.666 0 0 0-6.666-6.666 6.666 6.666 0 0 0-6.667 6.667 6.666 6.666 0 0 0 6.667 6.666 6.666 6.666 0 0 0 6.666-6.666zm0 0" style="fill:wheat;fill-opacity:1;stroke:#fff;stroke-width:2.25000572;stroke-linecap:butt;stroke-linejoin:miter;stroke-miterlimit:10;stroke-dasharray:none;stroke-opacity:1;filter:url(#a)" transform="translate(.405 .405) scale(1.33333)"/><path style="fill:none;stroke:#fff;stroke-width:1.50000012;stroke-linecap:butt;stroke-linejoin:miter;stroke-miterlimit:10;stroke-dasharray:none;stroke-opacity:1" d="M25.993 10.186a2.502 2.502 0 0 1 4.27 1.77c0 1.379-1.121 2.5-2.5 2.5v5m-2.5-2.5h5" transform="translate(-15.772 -1.715)"/></svg>