<svg width="32.976" height="32.976" viewBox="0 0 24.732 24.732" xmlns="http://www.w3.org/2000/svg"><defs><filter style="color-interpolation-filters:sRGB" id="a" x="-.18" width="1.361" y="-.18" height="1.361"><feGaussianBlur stdDeviation=".533"/></filter></defs><path d="M15.637 8.97a6.666 6.666 0 0 0-6.666-6.666 6.666 6.666 0 0 0-6.667 6.667 6.666 6.666 0 0 0 6.667 6.666 6.666 6.666 0 0 0 6.666-6.666zm0 0" style="fill:#8b8589;fill-opacity:1;stroke:#fff;stroke-width:2.25000572;stroke-linecap:butt;stroke-linejoin:miter;stroke-miterlimit:10;stroke-dasharray:none;stroke-opacity:1;filter:url(#a)" transform="translate(.405 .405) scale(1.33333)"/><path style="fill:none;stroke:#000;stroke-width:1.5;stroke-linecap:butt;stroke-linejoin:miter;stroke-miterlimit:10;stroke-dasharray:none;stroke-opacity:1" transform="translate(6.366 6.366)" d="M7.766 2.464h1.77v1.77M4.749 2.251 6 1l1.251 1.251m-3.017.213h-1.77v1.77m5.302 5.302h1.77v-1.77m-5.302 1.77h-1.77v-1.77M4.75 9.749 6 11l1.251-1.251m-5-2.498L1 6l1.251-1.251M9.75 7.25 11 6 9.749 4.749M2.464 9.536l7.072-7.072m-7.072 0 7.072 7.072M6 11V1M1 6h10"/></svg>