<svg width="32.976" height="32.976" viewBox="0 0 24.732 24.732" xmlns="http://www.w3.org/2000/svg"><defs><filter style="color-interpolation-filters:sRGB" id="a" x="-.18" width="1.361" y="-.18" height="1.361"><feGaussianBlur stdDeviation=".533"/></filter></defs><path style="fill:#954535;fill-opacity:1;stroke:#fff;stroke-width:2.25000572;stroke-linecap:butt;stroke-linejoin:miter;stroke-miterlimit:10;stroke-dasharray:none;stroke-opacity:1;filter:url(#a)" d="M15.637 8.97a6.666 6.666 0 0 0-6.666-6.666 6.666 6.666 0 0 0-6.667 6.667 6.666 6.666 0 0 0 6.667 6.666 6.666 6.666 0 0 0 6.666-6.666z" transform="translate(.405 .405) scale(1.33333)"/><path style="fill:none;stroke:#fff;stroke-width:1.50000012;stroke-linecap:square;stroke-linejoin:bevel;stroke-miterlimit:6.4000001;stroke-dasharray:none;stroke-opacity:1" transform="translate(0 -.139)" d="m14.071 8.08-1.745 1.79 1.792 1.745m.23 4.505c0-.691-.903-1.25-2.022-1.25-1.118 0-2.022.559-2.022 1.25 0 .692.904 1.25 2.022 1.25 1.12 0 2.023-.558 2.023-1.25zm-2.022-1.25c.014-2.5 0-5-.033-7.5"/></svg>