<svg xmlns="http://www.w3.org/2000/svg" width="32.976" height="32.976" viewBox="0 0 24.732 24.732"><defs><filter style="color-interpolation-filters:sRGB" id="a" x="-.096" width="1.192" y="-.096" height="1.192"><feGaussianBlur stdDeviation=".533"/></filter></defs><path d="M15.637 8.97a6.666 6.666 0 0 0-6.666-6.666 6.666 6.666 0 0 0-6.667 6.667 6.666 6.666 0 0 0 6.667 6.666 6.666 6.666 0 0 0 6.666-6.666zm0 0" style="fill:#9fe2bf;fill-opacity:1;stroke:#fff;stroke-width:2.25000572;stroke-linecap:butt;stroke-linejoin:miter;stroke-miterlimit:10;stroke-dasharray:none;stroke-opacity:1;filter:url(#a)" transform="translate(.405 .405) scale(1.33333)"/><path style="fill:#fff;fill-opacity:1;stroke:#fff;stroke-width:0;stroke-linecap:butt;stroke-linejoin:miter;stroke-miterlimit:10;stroke-dasharray:none;stroke-opacity:1" d="M13.616 7.982a1.25 1.25 0 1 0-1.25 1.25c.692 0 1.25-.559 1.25-1.25zm0 5c0-.691-.558-1.25-1.25-1.25a1.249 1.249 0 1 0 1.25 1.25zm0 0" transform="translate(0 -.5)"/><path style="fill:none;stroke:#fff;stroke-width:1.5;stroke-linecap:butt;stroke-linejoin:miter;stroke-miterlimit:10;stroke-dasharray:none;stroke-opacity:1" d="M7.366 10.482h10m-7.5 0c0 3.453-1.12 6.25-2.5 6.25m7.5-6.25c0 3.453 1.121 6.25 2.5 6.25" transform="translate(0 -.5)"/></svg>