<svg width="32.976" height="32.976" viewBox="0 0 24.732 24.732" xmlns="http://www.w3.org/2000/svg"><defs><filter style="color-interpolation-filters:sRGB" id="a" x="-.18" width="1.361" y="-.18" height="1.361"><feGaussianBlur stdDeviation=".533"/></filter></defs><path d="M15.637 8.97a6.666 6.666 0 0 0-6.666-6.666 6.666 6.666 0 0 0-6.667 6.667 6.666 6.666 0 0 0 6.667 6.666 6.666 6.666 0 0 0 6.666-6.666zm0 0" style="fill:#ca1f7b;fill-opacity:1;stroke:#fff;stroke-width:2.25000572;stroke-linecap:butt;stroke-linejoin:miter;stroke-miterlimit:10;stroke-dasharray:none;stroke-opacity:1;filter:url(#a)" transform="translate(.405 .405) scale(1.33333)"/><path style="fill:none;stroke:#fff;stroke-width:1.50000012;stroke-linecap:butt;stroke-linejoin:miter;stroke-miterlimit:4;stroke-dasharray:none;stroke-opacity:1" d="M14.033 13.228a1.668 1.668 0 1 0-1.667 1.667c.92 0 1.667-.747 1.667-1.667zm-1.667-1.666V8.296m1.2 7.795a1.201 1.201 0 0 0-2.4 0 1.201 1.201 0 0 0 2.4 0zM10.6 7.295a2.492 2.492 0 0 0-.733 1.767c0 1.379 1.121 2.5 2.5 2.5 1.38 0 2.5-1.121 2.5-2.5 0-.69-.28-1.315-.733-1.767"/></svg>