<svg xmlns="http://www.w3.org/2000/svg" width="32.976" height="32.976" viewBox="0 0 24.732 24.732"><defs><filter style="color-interpolation-filters:sRGB" id="a" x="-.096" width="1.192" y="-.096" height="1.192"><feGaussianBlur stdDeviation=".533"/></filter></defs><path d="M15.637 8.97a6.666 6.666 0 0 0-6.666-6.666 6.666 6.666 0 0 0-6.667 6.667 6.666 6.666 0 0 0 6.667 6.666 6.666 6.666 0 0 0 6.666-6.666zm0 0" style="fill:#c9c0bb;fill-opacity:1;stroke:#fff;stroke-width:2.25000572;stroke-linecap:butt;stroke-linejoin:miter;stroke-miterlimit:10;stroke-dasharray:none;stroke-opacity:1;filter:url(#a)" transform="translate(.405 .405) scale(1.33333)"/><path style="fill:none;stroke:#fff;stroke-width:1.50000012;stroke-linecap:butt;stroke-linejoin:miter;stroke-miterlimit:10;stroke-dasharray:none;stroke-opacity:1" d="M-11.576 4.207a2 2 0 1 0-2 2 2 2 0 0 0 2-2zm-4-4c0 1.105.894 2 2 2s2-.895 2-2m-2 10v-4m-2 2h4" transform="translate(25.942 7.16)"/></svg>