<svg width="32.976" height="32.976" viewBox="0 0 24.732 24.732" xmlns="http://www.w3.org/2000/svg"><defs><filter style="color-interpolation-filters:sRGB" id="a" x="-.18" width="1.361" y="-.18" height="1.361"><feGaussianBlur stdDeviation=".533"/></filter></defs><path style="fill:#8b8589;fill-opacity:1;stroke:#fff;stroke-width:2.25000572;stroke-linecap:butt;stroke-linejoin:miter;stroke-miterlimit:10;stroke-dasharray:none;stroke-opacity:1;filter:url(#a)" d="M15.637 8.97a6.666 6.666 0 0 0-6.666-6.666 6.666 6.666 0 0 0-6.667 6.667 6.666 6.666 0 0 0 6.667 6.666 6.666 6.666 0 0 0 6.666-6.666z" transform="translate(.405 .405) scale(1.33333)"/><path style="clip-rule:nonzero;fill:none;stroke:#fff;stroke-width:1.5;stroke-linecap:butt;stroke-linejoin:miter;stroke-miterlimit:10;stroke-dasharray:none;stroke-opacity:1" d="M12.366 14.034h4.715m-5.895-.488 3.336 3.332m-.488-4.512a1.667 1.667 0 1 0-3.336 0 1.667 1.667 0 1 0 3.336 0zm3.332 0a5 5 0 1 0-10 0 5 5 0 0 0 10 0z"/></svg>