<svg width="32.976" height="32.976" viewBox="0 0 24.732 24.732" xmlns="http://www.w3.org/2000/svg"><defs><filter style="color-interpolation-filters:sRGB" id="a" x="-.18" width="1.361" y="-.18" height="1.361"><feGaussianBlur stdDeviation=".533"/></filter></defs><path style="fill:#000;fill-opacity:1;stroke:#fff;stroke-width:2.25000572;stroke-linecap:butt;stroke-linejoin:miter;stroke-miterlimit:10;stroke-dasharray:none;stroke-opacity:1;filter:url(#a)" d="M15.637 8.97a6.666 6.666 0 0 0-6.666-6.666 6.666 6.666 0 0 0-6.667 6.667 6.666 6.666 0 0 0 6.667 6.666 6.666 6.666 0 0 0 6.666-6.666z" transform="translate(.405 .405) scale(1.33333)"/><path style="fill:none;stroke:#fff;stroke-width:1.5;stroke-linecap:butt;stroke-linejoin:miter;stroke-miterlimit:10;stroke-dasharray:none;stroke-opacity:1" transform="translate(0 -.39)" d="M12.366 17.382v-4.625m-2.5 2.5h5m-6.25-6.25a3.751 3.751 0 0 0 7.5 0"/><path style="fill:#fff;fill-opacity:1;stroke:none;stroke-width:0;stroke-linecap:round;stroke-linejoin:round;stroke-miterlimit:10;stroke-dasharray:none;stroke-opacity:1" d="M13.616 9.496a1.25 1.25 0 1 0-2.5 0c0 .692.559 1.25 1.25 1.25s1.25-.558 1.25-1.25z" transform="translate(0 -.39)"/></svg>