<svg width="16" height="16" viewBox="0 0 12 12" xmlns="http://www.w3.org/2000/svg"><path style="color:#000;fill:#fff;fill-opacity:1;stroke:#000;stroke-opacity:1;stroke-width:.25;stroke-miterlimit:4;stroke-dasharray:none" d="M2.25 3.232c-.601 0-1.178.24-1.604.664l.708.708a1.268 1.268 0 0 1 1.792 0 2.268 2.268 0 0 0 3.208 0 1.268 1.268 0 0 1 1.792 0 2.268 2.268 0 0 0 3.208 0l-.708-.708a1.267 1.267 0 0 1-1.792 0 2.268 2.268 0 0 0-3.208 0 1.267 1.267 0 0 1-1.792 0 2.268 2.268 0 0 0-1.604-.664Zm0 3.5c-.601 0-1.178.24-1.604.664l.708.708a1.268 1.268 0 0 1 1.792 0 2.268 2.268 0 0 0 3.208 0 1.268 1.268 0 0 1 1.792 0 2.268 2.268 0 0 0 3.208 0l-.708-.708a1.267 1.267 0 0 1-1.792 0 2.268 2.268 0 0 0-3.208 0 1.267 1.267 0 0 1-1.792 0 2.268 2.268 0 0 0-1.604-.664Z"/></svg>