<svg width="16" height="16" viewBox="0 0 12 12" xmlns="http://www.w3.org/2000/svg"><path style="color:#000;fill:#fff;stroke-width:.33333333;fill-opacity:1;stroke:#000;stroke-opacity:1;stroke-miterlimit:4;stroke-dasharray:none" d="M8 .666c-1.944 0-3.81.774-5.186 2.148l.944.944A6 6 0 0 1 8 2a5.989 5.989 0 0 1 5.34 3.256 2.856 2.856 0 0 0-.895-.145A2.9 2.9 0 0 0 9.555 8a2.9 2.9 0 0 0 2.89 2.889A2.899 2.899 0 0 0 15.334 8C15.334 3.958 12.042.666 8 .666zM3.555 5.111A2.899 2.899 0 0 0 .666 8c0 4.042 3.292 7.334 7.334 7.334 1.945 0 3.81-.773 5.186-2.148l-.944-.944A5.995 5.995 0 0 1 8 14a5.99 5.99 0 0 1-5.34-3.256c.282.093.583.145.895.145A2.9 2.9 0 0 0 6.445 8a2.9 2.9 0 0 0-2.89-2.889zm0 1.334c.867 0 1.556.687 1.556 1.555 0 .868-.69 1.555-1.556 1.555A1.544 1.544 0 0 1 2 8c0-.867.687-1.555 1.555-1.555zm8.89 0C13.313 6.445 14 7.133 14 8s-.687 1.555-1.555 1.555A1.546 1.546 0 0 1 10.89 8c0-.867.69-1.555 1.556-1.555z" transform="scale(.75)"/></svg>