<svg width="16" height="16" viewBox="0 0 12 12" xmlns="http://www.w3.org/2000/svg"><path style="color:#000;fill:#fff;fill-opacity:1;stroke:#000;stroke-width:.25;stroke-linecap:butt;stroke-linejoin:miter;stroke-miterlimit:4.2;stroke-dasharray:none;stroke-opacity:1" d="M9.183 11.5a2.174 2.174 0 0 1-2.166-2.167h1c0 .65.516 1.167 1.166 1.167a1.16 1.16 0 0 0 1.167-1.167 1.17 1.17 0 0 0-.156-.583L7.932 4.833H6.24l-1.572 6.288h-.97L2.127 4.833H.85v-1h2.057L4.183 8.94 5.46 3.833h1.895l-.048-.083a2.167 2.167 0 0 1-.29-1.083C7.017 1.477 7.993.5 9.183.5a2.168 2.168 0 0 1 2.167 2.167c0 1.19-.976 2.166-2.167 2.166h-.096L11.06 8.25c.19.33.29.703.29 1.083 0 1.19-.976 2.167-2.167 2.167zM8.51 3.833h.673a1.16 1.16 0 0 0 1.167-1.166A1.165 1.165 0 0 0 9.183 1.5a1.16 1.16 0 0 0-1.166 1.167c0 .205.054.406.156.583z"/></svg>