<svg width="16" height="16" viewBox="0 0 12 12" xmlns="http://www.w3.org/2000/svg"><path style="color:#000;fill:#fff;stroke-width:.33333333;fill-opacity:1;stroke:#000;stroke-opacity:1;stroke-miterlimit:4;stroke-dasharray:none" d="M8 .666a4.01 4.01 0 0 0-4 4c0 1.005.442 1.875.844 2.676a2.341 2.341 0 0 0-2.51 2.324c0 1.28 1.051 2.334 2.332 2.334S7 10.947 7 9.666c0-1.055-.488-1.964-.904-2.797-.417-.833-.762-1.592-.762-2.203A2.656 2.656 0 0 1 8 2a2.656 2.656 0 0 1 2.666 2.666c0 1.556-.382 2.707-.799 3.957C9.451 9.873 9 11.223 9 13a2.345 2.345 0 0 0 2.334 2.334A2.343 2.343 0 0 0 13.666 13h-1.332c0 .56-.44 1-1 1s-1-.44-1-1c0-1.556.382-2.705.799-3.955.416-1.25.867-2.601.867-4.379 0-2.201-1.799-4-4-4zm-3.334 8a.99.99 0 0 1 1 1c0 .56-.44 1-1 1s-1-.44-1-1 .44-1 1-1z" transform="scale(.75)"/></svg>