<svg width="16" height="16" viewBox="0 0 12 12" xmlns="http://www.w3.org/2000/svg"><path style="color:#000;fill:#fff;fill-opacity:1;stroke:#000;stroke-opacity:1;stroke-width:.25;stroke-miterlimit:4;stroke-dasharray:none" d="M6 3a2.997 2.997 0 0 0-2.94 2.396c-.006.034-.003.07-.01.104H1v1h3V6a2.017 2.017 0 0 1 .156-.777A2.01 2.01 0 0 1 6 4a2.01 2.01 0 0 1 1.959 1.596C7.986 5.726 8 5.86 8 6v.5h3v-1H8.95c-.007-.034-.004-.07-.01-.104a2.99 2.99 0 0 0-.82-1.516A2.997 2.997 0 0 0 6 3ZM1 8v1h10V8Z"/></svg>