<svg width="16" height="16" viewBox="0 0 12 12" xmlns="http://www.w3.org/2000/svg"><path style="color:#000;fill:#fff;stroke-width:.33333333;fill-opacity:1;stroke:#000;stroke-opacity:1;stroke-miterlimit:4;stroke-dasharray:none" d="M4.166 1.648 3.5 2.805a5.993 5.993 0 0 1 2.96 4.529H1.335v1.332h5.127a5.993 5.993 0 0 1-2.961 4.53l.666 1.156a7.337 7.337 0 0 0 3.637-5.686h.394a7.34 7.34 0 0 0 3.637 5.686l.666-1.157a5.995 5.995 0 0 1-2.96-4.529h5.126V7.334H9.539a5.995 5.995 0 0 1 2.961-4.53l-.666-1.156a7.34 7.34 0 0 0-3.637 5.686h-.394a7.337 7.337 0 0 0-3.637-5.686z" transform="scale(.75)"/></svg>