<svg width="16" height="16" viewBox="0 0 12 12" xmlns="http://www.w3.org/2000/svg"><path style="color:#000;fill:#fff;fill-opacity:1;stroke:#000;stroke-width:.333333;stroke-miterlimit:4;stroke-dasharray:none;stroke-opacity:1" d="M3 2.334c-.618 0-1.21.246-1.648.684a2.333 2.333 0 0 0 0 3.3l.939-.943A1 1 0 0 1 2 4.666a1 1 0 0 1 1-1c.56 0 1 .44 1 1v6.668h1.334V4.666c0-.56.44-1 1-1s1 .44 1 1v6.668h1.332V4.666c0-.56.44-1 1-1s1 .44 1 1v6.668A2.343 2.343 0 0 0 13 13.666c.619 0 1.211-.246 1.648-.684.438-.437.686-1.03.686-1.648a2.31 2.31 0 0 0-.247-1.04c-.027-.054-.047-.106-.078-.157v-1.48h-2.33v2.33h1.259A.996.996 0 0 1 13 12.334c-.56-.001-1-.44-1-1.001V4.666a2.343 2.343 0 0 0-2.334-2.332c-.65 0-1.241.272-1.666.707a2.324 2.324 0 0 0-1.666-.707c-.65 0-1.243.272-1.668.707A2.324 2.324 0 0 0 3 2.334Z" transform="scale(.75)"/></svg>