<svg width="16" height="16" viewBox="0 0 12 12" xmlns="http://www.w3.org/2000/svg"><path style="color:#000;fill:#fff;stroke-width:.33333333;fill-opacity:1;stroke:#000;stroke-opacity:1;stroke-miterlimit:4;stroke-dasharray:none" d="M2.89 1.133a5.12 5.12 0 0 0 2.594 4.445 5.12 5.12 0 0 0-2.593 4.445A5.119 5.119 0 0 0 8 15.133a5.119 5.119 0 0 0 5.11-5.11 5.12 5.12 0 0 0-2.594-4.445 5.12 5.12 0 0 0 2.593-4.445h-1.33A3.77 3.77 0 0 1 8 4.913a3.77 3.77 0 0 1-3.78-3.78H2.89zM8 6.244a3.77 3.77 0 0 1 3.78 3.78A3.767 3.767 0 0 1 8 13.798a3.768 3.768 0 0 1-3.78-3.776A3.77 3.77 0 0 1 8 6.244z" transform="scale(.75)"/></svg>