<svg width="16" height="16" viewBox="0 0 12 12" xmlns="http://www.w3.org/2000/svg"><path style="color:#000;fill:#fff;fill-opacity:1;stroke:#000;stroke-width:.333333;stroke-miterlimit:4;stroke-dasharray:none;stroke-opacity:1" d="M3 2.334A2.337 2.337 0 0 0 .666 4.666c0 .619.248 1.215.686 1.652l.943-.943a.998.998 0 0 1 0-1.414A.998.998 0 0 1 4 4.666v6.668h1.334V4.666c0-.56.44-1 1-1s1 .44 1 1v6.668h1.332V4.666c0-.56.44-1 1-1s1 .44 1 1v5.873c-.043.01-.082.03-.125.04a4.364 4.364 0 0 1-.875.087V12c.367 0 .726-.037 1.074-.104a2.344 2.344 0 0 0 2.26 1.77v-1.332a.987.987 0 0 1-.986-.844 5.68 5.68 0 0 0 1.66-1.148 5.66 5.66 0 0 0 1.66-4.008A2.345 2.345 0 0 0 13 4c-.373 0-.725.092-1.04.25a2.346 2.346 0 0 0-2.294-1.916c-.65 0-1.241.272-1.666.707a2.324 2.324 0 0 0-1.666-.707c-.65 0-1.243.272-1.668.707A2.324 2.324 0 0 0 3 2.334zm10 3c.56 0 1 .44 1 1a4.31 4.31 0 0 1-1.912 3.594c-.028.018-.06.029-.088.047V6.334c0-.56.44-1 1-1z" transform="scale(.75)"/></svg>